<?xml version="1.0" encoding="utf-8"?>
<!-- Generator: Adobe Illustrator 13.0.0, SVG Export Plug-In . SVG Version: 6.00 Build 14948)  -->
<!DOCTYPE svg PUBLIC "-//W3C//DTD SVG 1.1//EN" "http://www.w3.org/Graphics/SVG/1.1/DTD/svg11.dtd">
<svg version="1.1" id="Ebene_1" xmlns="http://www.w3.org/2000/svg" xmlns:xlink="http://www.w3.org/1999/xlink" x="0px" y="0px"
	 width="496px" height="108px" viewBox="0 0 496 108" enable-background="new 0 0 496 108" xml:space="preserve">
<g>
	<defs>
		<polygon id="SVGID_1_" points="-50,-366 603.947,-380.667 603.947,461.223 -50,475.89 		"/>
	</defs>
	<clipPath id="SVGID_2_">
		<use xlink:href="#SVGID_1_"  overflow="visible"/>
	</clipPath>
	<path clip-path="url(#SVGID_2_)" fill="#0C892F" d="M484.18,88.672c0.371,0.406,0.836,0.711,1.393,0.914
		c0.559,0.203,1.082,0.305,1.578,0.305c0.619,0,1.238-0.119,1.859-0.355c0.617-0.236,1.16-0.559,1.625-0.965
		c0.465-0.404,0.836-0.879,1.113-1.42c0.279-0.541,0.42-1.117,0.42-1.727c0-0.947-0.496-1.859-1.486-2.74l-29.908-28.523
		l29.35-28.017c1.176-1.082,1.766-2.198,1.766-3.35c0-1.217-0.465-2.283-1.395-3.197c-0.928-0.914-2.012-1.371-3.25-1.371
		c-1.178,0-2.262,0.508-3.252,1.523l-29.629,28.321l-29.629-28.422c-1.053-0.948-2.135-1.422-3.25-1.422
		c-1.24,0-2.307,0.441-3.205,1.32c-0.898,0.881-1.345,1.928-1.345,3.147c0,0.543,0.122,1.101,0.37,1.675
		c0.246,0.575,0.68,1.133,1.301,1.674l29.35,28.119l-30,28.625c-0.434,0.34-0.742,0.779-0.93,1.318
		c-0.186,0.543-0.279,0.982-0.279,1.32c0,0.609,0.141,1.186,0.418,1.727c0.279,0.541,0.635,1.031,1.068,1.473
		c0.434,0.439,0.961,0.777,1.58,1.014s1.207,0.355,1.764,0.355c1.053,0,2.074-0.439,3.067-1.32l29.72-28.219L484.18,88.672z
		 M404.58,22.59c0-2.908-1.549-4.365-4.643-4.365c-3.406,0-5.109,1.457-5.109,4.365v63.139c0,2.91,1.609,4.365,4.83,4.365
		c3.281,0,4.922-1.455,4.922-4.365V22.59z"/>
	<path clip-path="url(#SVGID_2_)" fill="none" stroke="#05872E" stroke-miterlimit="10" d="M484.18,88.672
		c0.371,0.406,0.836,0.711,1.393,0.914c0.559,0.203,1.082,0.305,1.578,0.305c0.619,0,1.238-0.119,1.859-0.355
		c0.617-0.236,1.16-0.559,1.625-0.965c0.465-0.404,0.836-0.879,1.113-1.42c0.279-0.541,0.42-1.117,0.42-1.727
		c0-0.947-0.496-1.859-1.486-2.74l-29.908-28.523l29.35-28.017c1.176-1.082,1.766-2.198,1.766-3.35c0-1.217-0.465-2.283-1.395-3.197
		c-0.928-0.914-2.012-1.371-3.25-1.371c-1.178,0-2.262,0.508-3.252,1.523l-29.629,28.321l-29.629-28.422
		c-1.053-0.948-2.135-1.422-3.25-1.422c-1.24,0-2.307,0.441-3.205,1.32c-0.898,0.881-1.345,1.928-1.345,3.147
		c0,0.543,0.122,1.101,0.37,1.675c0.246,0.575,0.68,1.133,1.301,1.674l29.35,28.119l-30,28.625c-0.434,0.34-0.742,0.779-0.93,1.318
		c-0.186,0.543-0.279,0.982-0.279,1.32c0,0.609,0.141,1.186,0.418,1.727c0.279,0.541,0.635,1.031,1.068,1.473
		c0.434,0.439,0.961,0.777,1.58,1.014s1.207,0.355,1.764,0.355c1.053,0,2.074-0.439,3.067-1.32l29.72-28.219L484.18,88.672z
		 M404.58,22.59c0-2.908-1.549-4.365-4.643-4.365c-3.406,0-5.109,1.457-5.109,4.365v63.139c0,2.91,1.609,4.365,4.83,4.365
		c3.281,0,4.922-1.455,4.922-4.365V22.59z"/>
	<path clip-path="url(#SVGID_2_)" fill="none" stroke="#138A2F" stroke-width="4" stroke-miterlimit="12.11" d="M484.18,88.672
		c0.371,0.406,0.836,0.711,1.393,0.914c0.559,0.203,1.082,0.305,1.578,0.305c0.619,0,1.238-0.119,1.859-0.355
		c0.617-0.236,1.16-0.559,1.625-0.965c0.465-0.404,0.836-0.879,1.113-1.42c0.279-0.541,0.42-1.117,0.42-1.727
		c0-0.947-0.496-1.859-1.486-2.74l-29.908-28.523l29.35-28.017c1.176-1.082,1.766-2.198,1.766-3.35c0-1.217-0.465-2.283-1.395-3.197
		c-0.928-0.914-2.012-1.371-3.25-1.371c-1.178,0-2.262,0.508-3.252,1.523l-29.629,28.321l-29.629-28.422
		c-1.053-0.948-2.135-1.422-3.25-1.422c-1.24,0-2.307,0.441-3.205,1.32c-0.898,0.881-1.345,1.928-1.345,3.147
		c0,0.543,0.122,1.101,0.37,1.675c0.246,0.575,0.68,1.133,1.301,1.674l29.35,28.119l-30,28.625c-0.434,0.34-0.742,0.779-0.93,1.318
		c-0.186,0.543-0.279,0.982-0.279,1.32c0,0.609,0.141,1.186,0.418,1.727c0.279,0.541,0.635,1.031,1.068,1.473
		c0.434,0.439,0.961,0.777,1.58,1.014s1.207,0.355,1.764,0.355c1.053,0,2.074-0.439,3.067-1.32l29.72-28.219L484.18,88.672z
		 M404.58,22.59c0-2.908-1.549-4.365-4.643-4.365c-3.406,0-5.109,1.457-5.109,4.365v63.139c0,2.91,1.609,4.365,4.83,4.365
		c3.281,0,4.922-1.455,4.922-4.365V22.59z"/>
	<path clip-path="url(#SVGID_2_)" fill="#004B62" d="M375.238,50.292c0-9.949-8.029-14.924-24.086-14.924H333.67
		c-15.994,0-23.99,4.975-23.99,14.924v36.123c0,2.951,1.518,4.426,4.555,4.426c2.977,0,4.465-1.475,4.465-4.426V50.292
		c0-4.459,4.152-6.691,12.461-6.691h22.689c8.121,0,12.182,2.232,12.182,6.691v36.123c0,2.951,1.549,4.426,4.65,4.426
		c3.037,0,4.557-1.475,4.557-4.426V50.292z M297.498,51.834c0-10.976-7.037-16.467-21.111-16.467h-9.576
		c-2.172,0-3.256,1.338-3.256,4.014c0,2.814,1.084,4.219,3.256,4.219h10.973c6.756,0,10.444,2.713,11.064,8.133H249.42
		c-14.568,0-21.852,5.349-21.852,16.054v7.1c0,10.293,7.439,15.439,22.317,15.439h26.502c14.074,0,21.111-5.354,21.111-16.055
		V51.834z M288.941,71.389c0,7.068-3.658,10.602-10.973,10.602h-29.85c-7.564,0-11.345-2.332-11.345-7v-7.514
		c0-4.939,3.534-7.408,10.601-7.408h41.566V71.389z M219.664,49.983c0-9.743-6.974-14.616-20.923-14.616h-20.458
		c-16.615,0-24.922,5.627-24.922,16.879v21.098c0,11.322,8.4,16.982,25.201,16.982h7.625c2.541,0,3.813-1.406,3.813-4.221
		c0-2.742-1.272-4.115-3.813-4.115h-9.95c-9.238,0-13.856-2.471-13.856-7.41v-6.793h53.284c2.665,0,3.999-1.545,3.999-4.631V49.983z
		 M162.381,51.473c0-5.248,4.618-7.873,13.856-7.873h24.271c6.942,0,10.415,2.488,10.415,7.461v8.183h-48.542V51.473z
		 M141.644,22.297c0-2.949-1.52-4.426-4.557-4.426c-2.975,0-4.463,1.477-4.463,4.426v64.117c0,2.951,1.518,4.426,4.556,4.426
		c2.976,0,4.464-1.475,4.464-4.426V22.297z"/>
	<path clip-path="url(#SVGID_2_)" fill="none" stroke="#004B62" stroke-width="4" stroke-miterlimit="15.769" d="M375.238,50.292
		c0-9.949-8.029-14.924-24.086-14.924H333.67c-15.994,0-23.99,4.975-23.99,14.924v36.123c0,2.951,1.518,4.426,4.555,4.426
		c2.977,0,4.465-1.475,4.465-4.426V50.292c0-4.459,4.152-6.691,12.461-6.691h22.689c8.121,0,12.182,2.232,12.182,6.691v36.123
		c0,2.951,1.549,4.426,4.65,4.426c3.037,0,4.557-1.475,4.557-4.426V50.292z M297.498,51.834c0-10.976-7.037-16.467-21.111-16.467
		h-9.576c-2.172,0-3.256,1.338-3.256,4.014c0,2.814,1.084,4.219,3.256,4.219h10.973c6.756,0,10.444,2.713,11.064,8.133H249.42
		c-14.568,0-21.852,5.349-21.852,16.054v7.1c0,10.293,7.439,15.439,22.317,15.439h26.502c14.074,0,21.111-5.354,21.111-16.055
		V51.834z M288.941,71.389c0,7.068-3.658,10.602-10.973,10.602h-29.85c-7.564,0-11.345-2.332-11.345-7v-7.514
		c0-4.939,3.534-7.408,10.601-7.408h41.566V71.389z M219.664,49.983c0-9.743-6.974-14.616-20.923-14.616h-20.458
		c-16.615,0-24.922,5.627-24.922,16.879v21.098c0,11.322,8.4,16.982,25.201,16.982h7.625c2.541,0,3.813-1.406,3.813-4.221
		c0-2.742-1.272-4.115-3.813-4.115h-9.95c-9.238,0-13.856-2.471-13.856-7.41v-6.793h53.284c2.665,0,3.999-1.545,3.999-4.631V49.983z
		 M162.381,51.473c0-5.248,4.618-7.873,13.856-7.873h24.271c6.942,0,10.415,2.488,10.415,7.461v8.183h-48.542V51.473z
		 M141.644,22.297c0-2.949-1.52-4.426-4.557-4.426c-2.975,0-4.463,1.477-4.463,4.426v64.117c0,2.951,1.518,4.426,4.556,4.426
		c2.976,0,4.464-1.475,4.464-4.426V22.297z"/>
</g>
<path fill="#0C892F" d="M30.792,99.3c-2.859-4.29-7.181-7.677-12.333-9.458c-0.581-0.175-1.161-0.352-1.736-0.539
	c-1.663-0.398-3.159-1.185-4.511-2.144c-0.434-0.313-0.848-0.646-1.241-1c-0.36-0.321-0.705-0.653-1.037-0.998
	C7.042,81.929,4.34,77.252,6.255,73.05c0.733-1.151,2.021-1.559,3.423-1.509c0.893-0.043,1.772,0.114,2.617,0.377
	c0.417,0.077,0.833,0.153,1.251,0.23c8.936-0.582,6.921-11.404,6.938-17.061c0.046-5.546,0.786-15.165-7.23-16.274
	c-0.61,0.084-1.219,0.176-1.83,0.258c-1.41,0.387-2.917,0.429-4.235-0.24c-0.332-0.173-0.623-0.396-0.873-0.657
	c-0.234-0.236-0.438-0.493-0.614-0.766c-2.153-4.296,0.175-9.22,3.048-12.731c1.257-1.393,2.774-2.547,4.55-3.348
	c0.823-0.409,1.692-0.734,2.609-0.921c0.4-0.119,0.802-0.236,1.204-0.35c5.501-1.335,10.287-5.378,12.446-10.164
	c0.811-2.427,2.133-4.461,4.486-5.881c4.21-2.22,9.386-3.379,14.124-1.964c4.407,1.941,2.139,5.765-0.908,7.828
	c-3.668,2.076-7.978,2.512-12.156,3.097c-6.511,1.263-11.085,5.576-13.477,11.146c-0.803,1.87-1.131,4.006-1.475,7.332
	c-0.694,6.723,4.28,11.156,11.511,11.209c2.857-0.119,5.717-0.214,8.577-0.289c8.204-0.664,14.869-6.183,15.416-13.845
	c-0.179-3.804-0.357-7.913,3.038-10.657c5.607-3.511,12.628-2.343,18.015,1.043c3.683,2.314,6.506,10.12,2.249,14.913
	c-3.696,3.155-9.006,2.709-13.681,2.572c-8.961,0.362-15.263,8.426-15.515,14.448c-0.031,0.738,0.14,1.918,0.106,2.878
	c-0.062,1.688-0.027,2.794-0.128,4.219c-0.143,2.03-0.928,3.963-2.189,5.651c-0.607,0.955-1.331,1.838-2.165,2.635
	c-3.856,3.218-8.981,3.147-13.88,2.838c-6.861,0.032-11.178,6.503-10.51,10.73c0.362,2.282,0.716,4.538,1.572,6.753
	c2.154,5.573,7.489,9.011,13.625,10.119c2.342,0.341,4.692,0.618,7.049,0.835c5.783,0.292,11.903-2.115,12.414-7.988
	c-0.196-3.884,0.133-7.668,3.277-10.576c5.399-4.035,13.485-5.49,19.308-1.339c4.301,4.313,2.373,10.088-1.95,13.69
	c-3.616,2.519-8.071,3.027-12.473,3.289c-4.982,0.479-12.259,3.179-12.562,7.209c-0.027,0.365,0.119,0.725,0.172,1.089
	c0.154,0.477,0.184,0.975,0.034,1.457c-0.218,1.001-1.09,1.621-2.073,2.001c-2.208,0.722-4.581,0.729-6.884,0.457
	c-2.582-0.347-5.071-1.08-7.355-2.238c-1.241-0.675-2.38-1.511-3.168-2.629c-0.354-0.466-0.64-0.971-0.782-1.527
	C31.058,100.036,30.924,99.668,30.792,99.3"/>
<path fill-rule="evenodd" clip-rule="evenodd" fill="#0C892F" d="M1.427,51.567c0.13-2.315,0.96-5.578,3.833-6.183
	c1.698-0.189,3.395-0.36,5.095-0.516c3.559-0.017,4.797,3.703,4.878,6.379c-0.039,2.702,0,5.404,0.118,8.104
	c-0.004,2.603-1.164,6.248-4.676,6.09c-1.703-0.222-3.403-0.464-5.096-0.737c-2.862-0.732-3.82-3.912-4.036-6.302
	C1.424,56.125,1.386,53.847,1.427,51.567"/>
<path fill="#0C4B64" d="M91.871,52.119c0.122-2.93,1.681-6.615,5.439-6.64c1.881,0.142,3.763,0.297,5.641,0.473
	c3.061,0.565,4.068,3.881,4.192,6.354c0.026,2.354-0.034,4.705-0.175,7.055c-0.255,2.566-1.444,5.772-4.482,6.513
	c-1.871,0.29-3.748,0.551-5.63,0.785c-3.684,0.167-5.138-3.389-5.146-6.217C91.839,57.669,91.892,54.894,91.871,52.119
	 M77.303,9.189c0.368,1.658,7.327,8.335,12.858,10.019c0.634,0.16,1.267,0.323,1.896,0.5c1.797,0.341,3.423,1.124,4.885,2.121
	c0.464,0.319,0.904,0.666,1.319,1.037c0.378,0.334,0.741,0.683,1.09,1.043c3.129,3.549,5.597,8.646,3.32,13.106
	c-0.873,1.279-2.312,1.83-3.917,1.865c-0.977,0.099-1.954-0.011-2.896-0.249c-0.46-0.061-0.919-0.122-1.377-0.18
	c-9.487,1.05-8.118,11.848-8.351,18.261c-0.208,5.671-0.93,15.263,7.436,16.036c0.667-0.104,1.33-0.219,1.995-0.323
	c1.518-0.426,3.152-0.566,4.636,0.034c0.353,0.147,0.674,0.346,0.952,0.593c0.25,0.212,0.47,0.45,0.665,0.706
	c2.368,4.127-0.417,9-3.346,12.225c-1.381,1.385-3.02,2.505-4.884,3.294c-0.889,0.411-1.819,0.735-2.79,0.938
	c-0.427,0.12-0.854,0.238-1.28,0.354c-5.261,1.229-10.478,4.615-12.597,9.298c-0.687,2.208-1.924,3.96-4.113,5.146
	c-4.253,1.996-9.291,2.822-13.934,1.527c-4.075-1.616-2.872-4.924,0.253-6.857c3.654-1.857,7.871-2.099,11.934-2.568
	c6.292-1.04,11.686-4.578,13.558-10.181c0.993-2.964,1.222-4.442,1.494-6.903c0.759-6.898-5.016-10.683-12.063-10.663
	c-2.94,0.135-5.884,0.241-8.829,0.314c-7.77,0.589-14.75,5.427-15.077,12.926c0.289,3.416,0.686,7.206-2.503,9.635
	c-5.382,3.107-12.061,1.745-16.927-1.558c-4.205-3.477-6.709-9.142-2.791-13.634c3.434-2.911,8.466-2.227,12.742-1.991
	c8.669-0.134,14.639-8.137,14.921-13.684c0.049-0.951,0.034-1.876-0.029-2.825c-0.093-1.408-0.034-2.861,0.061-4.255
	c0.142-2.075,0.981-4.04,2.271-5.764c0.635-0.993,1.391-1.911,2.258-2.745c4.043-3.41,9.431-3.463,14.62-3.283
	c7.479-0.251,12.207-5.446,11.91-11.992c-0.188-4.163-0.327-4.785-1.308-7.389c-2.246-5.951-7.636-9.545-14.182-10.686
	c-2.758-0.481-4.627-0.62-7.501-0.636c-6.46-0.037-12.679,3.016-13.438,9.321c0.042,4.193-0.364,8.308-3.654,11.508
	c-5.236,4.146-13.294,5.936-18.972,1.471c-4.193-4.649-2.201-10.725,2.104-14.654c3.534-2.711,8.007-3.377,12.462-3.747
	c5.589-0.698,12.123-3.07,13.282-8.416c0.104-0.481,0.033-0.859,0.018-1.271c-0.018-0.562-0.092-1.123,0.11-1.663
	c0.327-1.129,1.285-1.88,2.402-2.366c2.343-0.881,4.896-1.017,7.392-0.796c2.705,0.285,5.319,1.007,7.694,2.232
	c1.285,0.716,2.439,1.627,3.173,2.844c0.347,0.524,0.518,1.078,0.702,1.699C77.077,8.37,77.191,8.778,77.303,9.189"/>
</svg>
